<?xml version="1.0" standalone="no"?>
<!DOCTYPE svg PUBLIC "-//W3C//DTD SVG 20010904//EN"
 "http://www.w3.org/TR/2001/REC-SVG-20010904/DTD/svg10.dtd">
<svg version="1.0" xmlns="http://www.w3.org/2000/svg"
 width="1200.000000pt" height="1063.000000pt" viewBox="0 0 1200.000000 1063.000000"
 preserveAspectRatio="xMidYMid meet">
<metadata>
Created by potrace 1.10, written by Peter Selinger 2001-2011
</metadata>
<g transform="translate(0.000000,1063.000000) scale(0.100000,-0.100000)"
fill="#000000" stroke="none">
<path d="M453 10366 c-99 -31 -160 -84 -211 -180 l-27 -51 -3 -1387 c-2 -1384
-2 -1387 19 -1442 29 -78 102 -155 181 -192 l63 -29 1754 -3 c1143 -1 1774 1
1809 8 115 21 203 90 256 200 l31 65 0 1375 0 1375 -23 57 c-29 71 -99 147
-172 184 l-55 29 -1790 2 c-1461 1 -1798 -1 -1832 -11z m3578 -285 c18 -23 19
-59 19 -1352 0 -1316 0 -1329 -20 -1349 -20 -20 -33 -20 -1764 -20 l-1745 0
-20 26 -21 27 0 1319 c0 914 3 1325 11 1339 6 11 20 24 32 29 13 5 769 8 1755
7 l1734 -2 19 -24z"/>
<path d="M1067 9820 c-133 -34 -247 -142 -292 -279 -26 -80 -18 -217 18 -292
77 -160 223 -246 403 -237 67 4 94 10 148 37 209 103 293 346 190 555 -38 77
-134 167 -211 196 -65 26 -194 35 -256 20z"/>
<path d="M2335 8940 l-550 -550 -171 171 -171 171 -341 -344 -342 -343 0 -208
0 -207 1508 2 1507 3 3 480 2 479 -447 448 -448 448 -550 -550z"/>
</g>
</svg>
